<?xml version="1.0" encoding="UTF-8" standalone="no"?>
<!DOCTYPE svg PUBLIC "-//W3C//DTD SVG 20010904//EN" "http://www.w3.org/TR/2001/REC-SVG-20010904/DTD/svg10.dtd">
<svg xmlns="http://www.w3.org/2000/svg" viewBox="0 0 630 616">
  <g stroke="black" stroke-width="3" >
    <path id="bubble" fill="#ffe" d="M 283,276 C 271,270 243,260 230,216 35,234 34,157 33,135 31,113 50,27 190,33 330,39 301,140 299,153 298,166 271,207 246,211 247,240 270,269 283,275" />
    <path id="legs" fill="#fc6" d="M 426,605 C 425,517 476,514 471,599 481,621 496,517 470,483 444,449 440,486 440,486 421,479 412,578 421,606" />
    <path id="arms" fill="#fc6" d="M 467,420 C 467,420 555,381 555,381 555,381 564,391 564,391 564,391 505,407 477,449 450,490 383,408 317,412 309,403 331,402 331,402 331,402 422,423 422,423" />
    <path id="hand-2-back" fill="#444" d="M 561,374 C 526,386 605,442 610,368" />
    <path id="hand-2" fill="#999" d="M 576,373 C 576,373 610,365 610,365 612,403 514,394 575,365 Z" />
    <path id="hand-1-back" fill="#444" d="M 268,385 C 270,447 361,416 325,388" />
    <path id="hand-1" fill="#999" d="M 303,386 C 303,386 267,385 267,385 281,424 371,405 306,375 Z" />
    <path id="foot-2" fill="#444" d="M 462,615 C 462,578 508,580 524,615 Z" />
    <path id="foot-1" fill="#444" d="M 362,615 C 368,567 437,574 436,615 Z" />
    <path id="crin" fill="#fe9" d="M 420,163 C 456,152 479,172 479,172 479,172 451,175 447,182 481,183 484,210 484,210 485,210 474,199 456,199 476,211 490,240 491,248 481,243 470,245 470,245 470,245 491,272 491,272 491,272 471,267 471,267 471,267 489,288 489,302 482,297 473,294 473,294 473,294 486,312 488,325 486,324 478,320 478,320 478,320 493,348 486,367 483,362 478,361 478,361 478,360 487,386 493,386 489,390 479,382 478,380 483,390 487,398 498,398 490,406 462,401 452,383 442,366 418,178 418,178" />
    <path id="tail" fill="#fe9" d="M 499,498 C 511,456 548,440 578,458 568,460 559,464 559,464 560,464 586,459 594,491 586,488 577,488 577,488 577,488 603,512 600,541 594,527 589,514 573,508 576,516 570,526 567,532 566,524 565,505 553,496 556,508 549,517 549,517 549,517 547,504 539,489 540,502 539,509 537,513 533,500 530,454 501,498" />
    <path id="ears" fill="#fc6" d="M 371,182 C 343,181 324,166 324,137 324,108 309,110 338,120 367,130 372,160 370,174 366,196 405,202 406,172 408,142 427,114 453,111 472,108 450,112 451,126 452,140 452,170 416,179" />
    <path id="ear-2" fill="#fca" d="M 412,173 C 416,152 437,127 444,124 438,130 445,147 433,159 422,171 419,171 412,173" />
    <path id="ear-1" fill="#fca" d="M 365,175 C 360,157 347,135 332,128 337,133 335,155 343,163 351,170 355,173 366,175" />
    <path id="shirt-2" fill="#369" d="M 467,420 C 467,420 484,412 504,404 507,406 512,412 510,420 498,424 486,435 477,449 457,478 418,445 372,427 371,421 374,417 378,413 400,419 422,423 422,424" />
    <path id="body" fill="#fc6" d="M 430,296 C 441,402 374,448 375,498 377,538 411,548 450,546 489,544 515,538 514,492 512,447 450,383 452,275" />
    <path id="head" fill="#fc6" d="M 393,159 C 453,159 510,351 382,350 306,349 297,279 336,229 347,214 356,160 389,159" />
    <path id="hair-top" fill="#fe9" d="M 407,152 C 407,141 403,132 403,132 403,132 397,143 397,143 397,143 391,132 388,130 389,135 389,142 389,142 389,142 378,137 367,144 374,147 378,151 378,151 378,151 360,160 353,174 365,167 377,167 377,167 377,167 360,176 358,196 365,185 376,179 376,179 376,179 375,193 380,203 384,186 385,181 385,181 385,181 397,202 397,202 397,202 400,183 400,177 400,170 415,188 415,192 415,196 418,179 411,171 422,173 429,172 432,178 429,158 411,161 411,161 411,160 429,157 430,157 430,157 414,149 407,152Z" />
    <path id="mouth"  fill="#fa2" d="M 456,296 C 448,327 426,350 382,350 334,349 312,320 314,287 320,282 328,278 336,275 330,259 352,257 353,269 375,261 396,257 419,268 420,258 442,261 434,276 441,281 449,288 456,297" />
    <ellipse cx="345" cy="273" rx="3" ry="4" fill="black" stroke-width="0" />
    <ellipse cx="426" cy="272.5" rx="3" ry="3.5" fill="black" stroke-width="0" />
    <circle cx="370" cy="230" r="4" fill="black" />
    <circle cx="406" cy="230" r="4" fill="black" />
    <path id="shirt-1" fill="#369" d="M 475,393 C 473,402 438,409 416,397 399,439 374,467 375,498 392,507 409,516 448,514 487,512 500,502 514,492 513,466 492,435 475,392" />
    <text stroke-width="0" x="165" y="130" font-size="60" dominant-baseline="middle" text-anchor="middle">
      ¡Hola!
      <animate attributeName="font-size" dur="15s" values="0;0;60;60;60;60;60;0;0;0;0;0;0;0;0;0;0;0;0;0;0;0;0;0;0;0;0;0;0;0;0;0;0;0;0;0;0;0;0;0;0;0;0;0;0;0;0;0;0;0;" repeatCount="indefinite" />
    </text>
    <text stroke-width="0" x="165" y="130" font-size="60" dominant-baseline="middle" text-anchor="middle">
      Hello!
      <animate attributeName="font-size" dur="15s" values="0;0;0;0;0;0;0;0;0;0;0;0;60;60;60;60;60;0;0;0;0;0;0;0;0;0;0;0;0;0;0;0;0;0;0;0;0;0;0;0;0;0;0;0;0;0;0;0;0;0;" repeatCount="indefinite" />
    </text>
    <text stroke-width="0" x="165" y="130" font-size="60" dominant-baseline="middle" text-anchor="middle">
      Salut !
      <animate attributeName="font-size" dur="15s" values="0;0;0;0;0;0;0;0;0;0;0;0;0;0;0;0;0;0;0;0;0;0;60;60;60;60;60;0;0;0;0;0;0;0;0;0;0;0;0;0;0;0;0;0;0;0;0;0;0;0;" repeatCount="indefinite" />
    </text>
    <text stroke-width="0" x="165" y="130" font-size="60" dominant-baseline="middle" text-anchor="middle">
      Hallo!
      <animate attributeName="font-size" dur="15s" values="0;0;0;0;0;0;0;0;0;0;0;0;0;0;0;0;0;0;0;0;0;0;0;0;0;0;0;0;0;0;0;0;60;60;60;60;60;0;0;0;0;0;0;0;0;0;0;0;0;0;" repeatCount="indefinite" />
    </text>
    <text stroke-width="0" x="165" y="130" font-size="60" dominant-baseline="middle" text-anchor="middle">
      Salve
      <animate attributeName="font-size" dur="15s" values="0;0;0;0;0;0;0;0;0;0;0;0;0;0;0;0;0;0;0;0;0;0;0;0;0;0;0;0;0;0;0;0;0;0;0;0;0;0;0;0;0;0;60;60;60;60;60;0;0;0;" repeatCount="indefinite" />
    </text>
    <path id="smile" fill="none" d="M 391,333 C 416,332 426,324 435,311M 430,310 C 435,310 436,314 436,317" />
    <path stroke-width="0" fill-rule="evenodd" fill="#fff" d="M 403.25,467.88
           C 402.38,466.38 402.38,465.38 403.62,464.38
             404.00,463.00 403.50,461.38 403.50,461.38
             403.50,461.38 404.75,460.62 406.50,459.38
             408.25,458.12 416.62,452.38 416.62,452.38
             416.62,452.38 416.12,450.88 421.75,449.75
             424.88,445.75 427.88,445.12 431.00,444.75
             430.12,446.75 430.00,446.88 430.00,446.88
             430.00,446.88 449.75,439.25 476.50,456.38
             473.00,459.25 465.50,460.25 463.50,460.12
             460.88,455.88 445.50,453.12 442.12,453.62
             443.38,451.88 443.75,449.75 443.75,449.75
             443.75,449.75 440.25,452.12 432.38,454.00
             431.75,458.38 429.25,465.38 419.88,461.25
             419.62,461.38 415.50,464.38 415.50,464.38
             415.50,464.38 419.75,462.38 419.75,462.38
             419.75,462.38 430.75,468.12 434.50,455.75
             445.50,454.88 451.12,455.88 458.12,462.50
             454.25,463.00 450.62,464.75 449.12,466.25
             446.88,463.62 441.25,461.25 439.00,461.38
             444.00,463.25 446.88,467.25 447.38,467.88
             445.62,469.62 444.25,473.50 443.50,476.00
             442.62,469.50 437.75,465.50 432.38,463.25
             429.50,466.12 423.50,466.62 419.38,464.38
             416.38,466.25 414.12,469.12 414.00,470.38
             413.88,471.62 408.00,469.75 407.75,469.38
             407.50,469.00 413.25,470.00 413.12,465.12
             412.88,463.12 406.12,464.50 403.38,467.88M 434.38,443.88
           C 437.75,443.50 443.88,443.12 446.12,443.50
             447.50,439.38 451.25,438.62 458.00,440.62
             464.75,442.62 469.00,439.50 469.25,435.38
             467.12,437.62 464.75,439.75 458.38,436.25
             452.00,432.75 444.00,431.25 434.25,443.88M 449.50,443.88
           C 455.38,444.25 465.25,447.75 466.75,449.50
             474.00,446.25 476.62,443.00 474.50,436.88
             473.00,442.00 472.38,444.88 464.38,443.50
             456.38,442.12 452.50,440.50 449.38,443.62M 469.00,450.50
           C 472.12,449.00 473.25,448.00 473.25,448.00
             473.25,448.00 478.25,452.25 482.62,448.62
             480.50,452.38 480.38,453.75 473.62,452.88
             471.62,451.62 468.88,450.50 468.88,450.50M 411.12,458.62
           C 411.12,458.62 417.75,453.62 417.88,453.50
             418.00,453.38 419.62,454.38 419.50,452.75
             421.38,451.62 422.88,451.38 422.88,451.38
             422.88,451.38 420.38,453.06 420.44,453.44
             420.50,453.81 420.56,454.50 418.00,455.06
             415.44,455.62 411.25,458.56 411.19,458.56M 425.06,448.62
           C 425.25,448.00 426.12,446.75 428.06,447.00
             426.94,447.75 425.00,448.75 425.00,448.75M 405.44,463.88
           C 406.25,463.31 406.50,462.44 405.62,461.19
             407.95,460.47 407.19,463.59 405.50,463.94" />  
  </g>
</svg>
